# Blender v2.90.1 OBJ File: 'Hexagons.blend'
# www.blender.org
mtllib Hexagon_01.mtl
o Hexagon_Cylinder.068
v -0.000001 -240.711288 -16.781845
v -0.000001 0.181107 -16.781845
v 14.533504 -240.711288 -8.390922
v 14.533504 0.181107 -8.390922
v 14.533504 -240.711288 8.390924
v 14.533504 0.181107 8.390924
v -0.000002 -240.711288 16.781845
v -0.000002 0.181107 16.781845
v -14.533505 -240.711288 8.390921
v -14.533505 0.181107 8.390921
v -14.533505 -240.711288 -8.390921
v -14.533505 0.181107 -8.390921
v -0.000002 0.181107 0.000004
vt 0.098689 0.011244
vt 0.098689 0.987110
vt 0.157565 0.987110
vt 0.157565 0.011244
vt 0.157565 0.987110
vt 0.157565 0.011244
vt 0.098689 0.987110
vt 0.098689 0.011244
vt 0.039813 0.987110
vt 0.039813 0.011244
vt 0.039813 0.987110
vt 0.039813 0.011244
vn 0.5000 0.0000 -0.8660
vn 1.0000 0.0000 0.0000
vn 0.5000 0.0000 0.8660
vn -0.5000 0.0000 0.8660
vn 0.0000 1.0000 0.0000
vn -1.0000 0.0000 0.0000
vn -0.5000 0.0000 -0.8660
vn 0.0000 -1.0000 0.0000
usemtl Material.003
s off
f 1/1/1 2/2/1 4/3/1 3/4/1
f 3/4/2 4/3/2 6/5/2 5/6/2
f 5/6/3 6/5/3 8/7/3 7/8/3
f 7/8/4 8/7/4 10/9/4 9/10/4
f 4/3/5 2/2/5 12/11/5 10/9/5 8/7/5 6/5/5
f 9/10/6 10/9/6 12/11/6 11/12/6
f 11/12/7 12/11/7 2/2/7 1/1/7
f 1/1/8 3/4/8 5/6/8 7/8/8 9/10/8 11/12/8
